<?xml version="1.0" encoding="UTF-8"?>
<svg xmlns="http://www.w3.org/2000/svg" width="1200" height="700" viewBox="0 0 1200 700">
  <style>
    .bg{fill:#ffffff}
    .panel{fill:none;stroke:#333;stroke-width:2}
    .card{fill:#f3f3f3;stroke:#ccc}
    .title{font-family:Arial, sans-serif;font-size:28px;fill:#222}
    .hint{font-family:Arial, sans-serif;font-size:14px;fill:#666}
  </style>
  <rect class="bg" x="0" y="0" width="1200" height="700"/>
  <text x="80" y="50" class="title">&#x95BC;&#x5361;&#x9078;&#x64C7;&#x8207;&#x79D1;&#x6280;&#x6A39;&#x9810;&#x89BD;</text>

  <!-- left: stage list -->
  <rect x="80" y="80" width="360" height="540" class="panel" rx="6"/>
  <text x="100" y="110" class="hint">&#x95BC;&#x5361;&#x5217;&#x8868;</text>
  <g>
    <rect x="100" y="140" width="320" height="80" class="card" rx="6"/>
    <text x="120" y="170" font-family="Arial" font-size="16">&#x95BC;&#x5361; 1&#xFF1A;&#x908A;&#x5883;&#x4E4B;&#x6230;</text>
    <text x="120" y="190" font-family="Arial" font-size="12" fill="#666">&#x96E3;&#x5EA6;&#xFF1A;&#x7C21;&#x55AE; &#x00B7; &#x63A8;&#x85A6;&#x7B49;&#x7D1A;&#xFF1A;1</text>

    <rect x="100" y="240" width="320" height="80" class="card" rx="6"/>
    <text x="120" y="270" font-family="Arial" font-size="16">&#x95BC;&#x5361; 2&#xFF1A;&#x6CB3;&#x5CB8;&#x8CC7;&#x6E90;&#x722D;&#x596A;</text>
    <text x="120" y="290" font-family="Arial" font-size="12" fill="#666">&#x5305;&#x542B;&#x6C34;&#x57DF; &#x00B7; &#x8CC7;&#x6E90;&#x8C50;&#x5BCC;</text>

    <rect x="100" y="340" width="320" height="80" class="card" rx="6"/>
    <text x="120" y="370" font-family="Arial" font-size="16">&#x95BC;&#x5361; 3&#xFF1A;&#x5C71;&#x5CB3;&#x58DF;&#x65B7;</text>
    <text x="120" y="390" font-family="Arial" font-size="12" fill="#666">&#x7926;&#x8108;&#x5BC6;&#x96C6; &#x00B7; &#x9AD8;&#x96E3;&#x5EA6;</text>
  </g>

  <!-- right: tech preview and details -->
  <rect x="480" y="80" width="620" height="540" class="panel" rx="6"/>
  <text x="500" y="110" class="hint">&#x79D1;&#x6280;&#x6A39;&#x9810;&#x89BD;</text>
  <rect x="500" y="140" width="560" height="420" fill="#fafafa" stroke="#eee"/>
  <text x="520" y="170" font-family="Arial" font-size="14">&#x53EF;&#x7528;&#x79D1;&#x6280;&#x5206;&#x652F;&#xFF08;&#x9EDE;&#x9078;&#x7BC0;&#x9EDE;&#x67E5;&#x770B;&#x8A73;&#x60C5;&#xFF09;</text>
  <g>
    <!-- simple tech nodes -->
    <circle cx="640" cy="220" r="18" fill="#fff" stroke="#888"/>
    <text x="640" y="225" font-family="Arial" font-size="12" text-anchor="middle">W+</text>
    <circle cx="740" cy="260" r="18" fill="#fff" stroke="#888"/>
    <text x="740" y="265" font-family="Arial" font-size="12" text-anchor="middle">A+</text>
    <circle cx="840" cy="320" r="18" fill="#fff" stroke="#888"/>
    <text x="840" y="325" font-family="Arial" font-size="12" text-anchor="middle">T+</text>
    <line x1="658" y1="220" x2="722" y2="260" stroke="#ccc"/>
    <line x1="758" y1="260" x2="822" y2="320" stroke="#ccc"/>
  </g>

  <!-- bottom controls -->
  <rect x="80" y="640" width="360" height="40" fill="#fff" stroke="#333" rx="6"/>
  <text x="260" y="666" font-family="Arial" font-size="14">&#x9078;&#x64C7;&#x95BC;&#x5361;&#x5F8C;&#x9EDE;&#x300C;&#x958B;&#x59CB;&#x300D;&#x9032;&#x5165;&#x90E8;&#x7D0D;</text>
  <rect x="980" y="640" width="120" height="40" fill="#fff" stroke="#333" rx="6"/>
  <text x="1040" y="666" font-family="Arial" font-size="14" text-anchor="middle">&#x958B;&#x59CB;</text>
</svg>